<?xml version="1.0"?>
<svg xmlns="http://www.w3.org/2000/svg" xmlns:xlink="http://www.w3.org/1999/xlink" version="1.1" id="Capa_1" x="0px" y="0px" viewBox="0 0 98 98" style="enable-background:new 0 0 98 98;" xml:space="preserve" width="512px" height="512px"><g><g>
	<g>
		<path d="M68,0H30c-5.5,0-10,4.5-10,10v78c0,5.5,4.5,10,10,10h38c5.5,0,10-4.5,10-10V10C78,4.5,73.5,0,68,0z     M49,94c-3.865,0-7-2.238-7-5s3.135-5,7-5c3.864,0,7,2.238,7,5C56,91.763,52.864,94,49,94z M70,79H28V13h42V79z" data-original="#030104" class="active-path" data-old_color="#030104" fill="#FFA500"/>
	</g>
</g></g> </svg>
